<svg xmlns="http://www.w3.org/2000/svg" viewBox="0 0 575.94 206.59"><path d="M96.84,104.06v31.46a22.77,22.77,0,0,0,.74,6.11c1.48,4.44,5.55,6.66,10.73,5.37,1.85-.37,2.22.18,2.41,2s.74,5.73,1.11,8.69c.18,1.11.18,1.3-.74,1.48-5.74.56-11.29,1.11-16.84-.92s-10.74-8.51-12.4-15.92a49.25,49.25,0,0,1-1.11-12.77c0-17.77-.19-35.53,0-53.3a33.82,33.82,0,0,0-1.48-10.55c-2.22-6.66-7-10.36-14.81-10.92a23.83,23.83,0,0,0-7.22.56,16,16,0,0,0-13.32,15c-.19,2.4-.19,5-.19,7.4,0,1.48.37,1.67,1.67,1.67H57.23c1.48,0,1.85.55,1.85,2a58.74,58.74,0,0,0,0,8c0,1.48-.37,1.85-1.85,1.85H45.76c-1.67-.18-2,.37-2,2v50.89c0,1.67-.18,2.41-2.22,2.41h-12c-1.66,0-2-.56-2-2,.18-16.65,0-33.5,0-50.15,0-3.15,0-3.15-3.15-3.15h-8c-.92,0-1.29-.18-1.29-1.29s-.19-6.11-.19-9.07c0-1.67.56-1.48,1.67-1.48h9.25c1.29.18,1.85-.19,1.85-1.67a38.73,38.73,0,0,1,.74-11.29C31.88,53.35,40.76,46,53.53,43.36A45.73,45.73,0,0,1,78,44.65C89.07,48.54,94.43,56.87,96.28,68a75.08,75.08,0,0,1,.56,14.44Z" fill="#282828"/><path d="M176.24,132.75c-10.92,8.88-23.14,10-36.09,7s-16.11-9.25-17.77-19.62a57.43,57.43,0,0,1-.56-8c0-10.18,0-20.36-.18-30.54,0-1.67.55-2,2.22-2h12c1.66,0,2,.56,2,2.22v24.8A47.65,47.65,0,0,0,139,116.83a13,13,0,0,0,11.1,10.37,35.79,35.79,0,0,0,13.33-.19c7-1.66,11.29-6.48,12.4-14.43a24.74,24.74,0,0,0,.55-5.19c0-8.7,0-17.39-.18-26.09,0-1.48.55-1.85,2-1.85h12.59c1.11,0,1.66.18,1.66,1.48,0,19.62.19,39.05-.18,58.48s-12.4,31.46-30.91,33.31c-9.81,1.12-19.43.19-28.32-4.62a30.65,30.65,0,0,1-13.69-13.7c-.74-1.29-.37-1.66.92-2.22l11.48-4.26c.92-.37,1.48-.55,2,.56,4.63,9.81,14.44,12.77,24.43,11.66s16.66-7.4,17.77-18.32A74.23,74.23,0,0,0,176.24,132.75Z" fill="#282828"/><path d="M218.25,92.77V60.57c-.19-1.67.18-2.22,1.85-2h12.4c1.66-.18,2,.37,2,1.85-.18,5.74,0,11.48-.18,17.4,0,1.3.37,1.85,1.85,1.67h16.66c1.48,0,1.85.37,1.85,1.66a58.34,58.34,0,0,0,0,8.15c0,1.29-.37,1.66-1.85,1.66H236.2c-1.48,0-1.85.37-1.85,1.85.18,10.18.18,20.55,0,30.72,0,4.26.74,8.15,4.81,10.37a13.29,13.29,0,0,0,13.14-.56c1.11-.55,2-2.4,3.33-1.85s1.48,2,2.22,3.15l3.34,5.18c.55.74.74,1.11-.19,1.85-9.44,7.41-24.24,8-33.87.93-6.29-4.44-8.88-10.74-8.88-18.33V92.77Z" fill="#282828"/><path d="M346.37,112.08c0,20.79-14.8,35.31-34.38,35.31-12.53,0-23.06-6.26-28.52-16.92v16.39h-6.4V48h6.67V93.16c5.59-10.4,16-16.39,28.25-16.39C331.57,76.77,346.37,91.16,346.37,112.08Zm-6.67,0c0-17.46-12.12-29.32-28.12-29.32s-28,11.86-28,29.32,12,29.31,28,29.31S339.7,129.54,339.7,112.08Z" fill="#282828"/><path d="M428.85,77.3v69.56h-6.53V130.47c-5.47,10.79-16,16.92-28.52,16.92-19.59,0-34.38-14.52-34.38-35.31s14.79-35.31,34.38-35.31c12.39,0,22.79,6.13,28.39,16.65V77.3Zm-6.66,34.78c0-17.46-12-29.32-28-29.32s-28,11.86-28,29.32,12,29.31,28,29.31S422.19,129.54,422.19,112.08Z" fill="#282828"/><path d="M446.7,138.46l3.07-5.33c5.33,4.53,14.79,8.4,25.05,8.4,14.66,0,20.52-5.2,20.52-13.06,0-20.26-46.11-5.33-46.11-32.65,0-10.53,8.8-19,26.39-19,8.79,0,18.39,2.66,23.85,6.79l-3.06,5.33c-5.87-4.26-13.46-6.26-20.92-6.26-13.6,0-19.59,5.6-19.59,13.06,0,20.92,46.1,6.13,46.1,32.65,0,11.32-9.72,19-27.45,19C463.09,147.39,452.17,143.53,446.7,138.46Z" fill="#282828"/><path d="M571.43,131.67l3.86,4.39c-6.13,7.47-15.59,11.33-26.25,11.33-21,0-36-14.66-36-35.31s14.13-35.31,33.85-35.31c18.52,0,31.71,13.85,32.65,32.38l-58.77,11.46c3.33,12.79,14.13,20.78,28.38,20.78C558.1,141.39,566.1,138.2,571.43,131.67Zm-51.84-20.12c0,1.33.14,2.79.27,4.13l53-10.4c-1.86-12.39-11.72-22.65-26-22.65C530.92,82.63,519.59,94.62,519.59,111.55Z" fill="#282828"/></svg>